<svg xmlns="http://www.w3.org/2000/svg" viewBox="0 0 1200 640" width="1200" height="640" role="img" aria-labelledby="t d">
<title id="t">The picture and the band</title><desc id="d">A warm white photograph area fills the upper two thirds, holding one Klein blue square at the right. A black band across the bottom reads cstack. and Taste, made repeatable.</desc>
<rect width="1200" height="640" fill="#F6F4EF"/>
<rect x="0" y="480" width="1200" height="160" fill="#151515"/>
<rect x="876.0" y="312.0" width="120.0" height="120.0" fill="#002FA7"/>
<path fill="#fff" d="M66.816 552.096Q59.519999999999996 552.096 59.519999999999996 563.424Q59.519999999999996 568.48 61.471999999999994 571.36Q63.424 574.24 66.816 574.24Q69.44 574.24 70.912 572.8Q72.384 571.36 73.21600000000001 568.032H81.792Q81.152 574.24 77.088 577.856Q73.024 581.472 66.752 581.472Q59.072 581.472 54.816 576.736Q50.56 572.0 50.56 563.424Q50.56 554.592 54.848 549.7280000000001Q59.136 544.864 66.88 544.864Q73.344 544.864 77.344 548.4480000000001Q81.344 552.032 81.792 558.368H73.21600000000001Q72.44800000000001 554.976 71.00800000000001 553.5360000000001Q69.568 552.096 66.816 552.096Z M91.4 569.952Q91.848 572.128 93.224 573.28Q94.60000000000001 574.432 98.44 574.432Q101.57600000000001 574.432 103.33600000000001 573.5360000000001Q105.096 572.64 105.096 571.04Q105.096 570.016 104.424 569.376Q103.75200000000001 568.736 102.08800000000001 568.224L91.4 564.896Q91.336 564.896 90.632 564.672Q89.928 564.448 89.64 564.3199999999999Q89.352 564.192 88.584 563.904Q87.816 563.616 87.4 563.296Q86.98400000000001 562.976 86.34400000000001 562.496Q85.70400000000001 562.016 85.352 561.44Q85.0 560.864 84.616 560.128Q84.232 559.392 84.03999999999999 558.432Q83.848 557.472 83.848 556.384Q83.848 551.072 87.656 547.9680000000001Q91.464 544.864 98.05600000000001 544.864Q105.03200000000001 544.864 109.0 547.9680000000001Q112.968 551.072 113.096 556.576H104.456Q104.392 551.904 97.992 551.904Q95.62400000000001 551.904 94.21600000000001 552.768Q92.808 553.632 92.808 555.104Q92.808 556.128 93.44800000000001 556.672Q94.08800000000001 557.216 95.944 557.792L107.272 561.056Q114.05600000000001 563.04 114.05600000000001 569.76Q114.05600000000001 571.744 113.352 573.6320000000001Q112.648 575.52 111.08 577.376Q109.512 579.232 106.376 580.352Q103.24000000000001 581.472 98.952 581.472Q83.016 581.472 82.632 569.952Z M133.008 546.144V552.096H128.01600000000002V570.912Q128.01600000000002 573.216 128.592 573.952Q129.168 574.688 130.96 574.688Q131.66400000000002 574.688 133.008 574.496V580.768Q130.832 581.472 127.82400000000001 581.472Q119.05600000000001 581.472 119.05600000000001 573.344V552.096H114.64V546.144H119.05600000000001V536.864H128.01600000000002V546.144Z M144.984 581.472Q140.248 581.472 137.368 578.624Q134.488 575.776 134.488 571.104Q134.488 561.952 144.664 560.224L148.248 559.584Q148.376 559.584 149.52800000000002 559.424Q150.68 559.264 151.0 559.168Q151.32 559.072 152.248 558.88Q153.176 558.688 153.56 558.432Q153.944 558.176 154.488 557.76Q155.03199999999998 557.344 155.224 556.8Q155.416 556.256 155.416 555.552Q155.416 552.096 150.232 552.096Q146.904 552.096 145.56 553.12Q144.216 554.144 143.896 556.832H135.256Q136.088 544.864 150.04 544.864Q164.184 544.864 164.184 555.488V574.688Q164.184 577.056 166.232 578.912V580.0H156.504Q155.48 578.72 155.48 576.544Q150.744 581.472 144.984 581.472ZM155.416 566.112V563.68Q154.2 564.256 151.64 564.768L148.56799999999998 565.344Q145.752 565.92 144.60000000000002 567.008Q143.448 568.096 143.448 570.08Q143.448 572.0 144.76 573.12Q146.072 574.24 148.312 574.24Q151.704 574.24 153.56 572.1279999999999Q155.416 570.016 155.416 566.112Z M183.968 552.096Q176.672 552.096 176.672 563.424Q176.672 568.48 178.624 571.36Q180.576 574.24 183.968 574.24Q186.59199999999998 574.24 188.064 572.8Q189.536 571.36 190.368 568.032H198.944Q198.30399999999997 574.24 194.23999999999998 577.856Q190.176 581.472 183.904 581.472Q176.224 581.472 171.968 576.736Q167.712 572.0 167.712 563.424Q167.712 554.592 172.0 549.7280000000001Q176.28799999999998 544.864 184.03199999999998 544.864Q190.49599999999998 544.864 194.49599999999998 548.4480000000001Q198.49599999999998 552.032 198.944 558.368H190.368Q189.6 554.976 188.16 553.5360000000001Q186.72 552.096 183.968 552.096Z M210.98399999999998 558.88 222.31199999999998 545.44H232.48799999999997L220.712 558.496L233.32 580.0H222.82399999999998L214.56799999999998 564.768L210.98399999999998 568.672V580.0H202.02399999999997V533.344H210.98399999999998Z"/>
<rect x="237.8" y="567.8" width="12.2" height="12.2" fill="#fff"/>
<path fill="#fff" d="M702.232 551.532V580.0H698.14V551.532H687.58V547.924H712.748V551.532Z M716.4 563.764Q716.664 556.284 725.64 556.284Q729.908 556.284 732.108 557.89Q734.308 559.496 734.308 562.576V576.128Q734.308 577.932 736.288 577.932Q736.684 577.932 737.0799999999999 577.844V580.616Q735.54 581.012 734.572 581.012Q732.812 581.012 731.9100000000001 580.198Q731.008 579.384 730.788 577.624Q727.092 581.012 722.956 581.012Q719.48 581.012 717.434 579.164Q715.388 577.316 715.388 574.192Q715.388 573.18 715.586 572.344Q715.784 571.508 716.0260000000001 570.87Q716.268 570.232 716.884 569.682Q717.5 569.132 717.918 568.78Q718.336 568.428 719.326 568.098Q720.316 567.768 720.844 567.614Q721.372 567.46 722.692 567.24Q724.012 567.02 724.6279999999999 566.932Q725.244 566.844 726.828 566.624Q728.984 566.36 729.8199999999999 565.788Q730.656 565.216 730.656 564.072V563.104Q730.656 561.432 729.314 560.552Q727.972 559.672 725.508 559.672Q722.956 559.672 721.636 560.662Q720.316 561.652 720.096 563.764ZM723.7479999999999 577.8Q726.784 577.8 728.72 576.194Q730.656 574.588 730.656 572.74V568.604Q729.556 569.132 727.3340000000001 569.4839999999999Q725.112 569.836 723.4839999999999 570.1Q721.856 570.364 720.5360000000001 571.354Q719.216 572.344 719.216 574.104Q719.216 575.864 720.404 576.832Q721.592 577.8 723.7479999999999 577.8Z M743.3280000000001 573.136Q743.592 575.204 744.758 576.414Q745.9240000000001 577.624 748.96 577.624Q751.38 577.624 752.854 576.634Q754.3280000000001 575.644 754.3280000000001 574.016Q754.3280000000001 572.74 753.4920000000001 571.992Q752.6560000000001 571.244 750.764 570.804L747.332 569.968Q743.24 569.0 741.634 567.5260000000001Q740.028 566.052 740.028 563.324Q740.028 560.112 742.4480000000001 558.198Q744.868 556.284 748.8720000000001 556.284Q752.8760000000001 556.284 755.032 558.1320000000001Q757.188 559.98 757.2320000000001 563.368H753.36Q753.2280000000001 559.672 748.74 559.672Q746.496 559.672 745.1759999999999 560.6179999999999Q743.856 561.564 743.856 563.148Q743.856 564.38 744.8679999999999 565.15Q745.88 565.92 748.124 566.448L751.644 567.284Q755.076 568.12 756.616 569.6379999999999Q758.1560000000001 571.156 758.1560000000001 573.708Q758.1560000000001 577.052 755.5820000000001 579.0319999999999Q753.008 581.012 748.652 581.012Q739.72 581.012 739.456 573.136Z M771.0920000000001 556.944V559.936H767.308V575.732Q767.308 576.964 767.726 577.3820000000001Q768.144 577.8 769.332 577.8Q770.432 577.8 771.0920000000001 577.624V580.704Q769.3760000000001 581.012 768.1 581.012Q765.9440000000001 581.012 764.8000000000001 580.066Q763.6560000000001 579.12 763.6560000000001 577.36V559.936H760.532V556.944H763.6560000000001V550.608H767.308V556.944Z M794.104 569.704H777.1200000000001Q777.2080000000001 573.312 778.99 575.4680000000001Q780.772 577.624 783.8960000000001 577.624Q788.3840000000001 577.624 789.9240000000001 573.004H793.6200000000001Q792.916 576.788 790.32 578.9Q787.724 581.012 783.7640000000001 581.012Q778.9240000000001 581.012 776.1080000000002 577.7339999999999Q773.2920000000001 574.456 773.2920000000001 568.78Q773.2920000000001 563.104 776.1740000000001 559.694Q779.056 556.284 783.8520000000001 556.284Q794.104 556.284 794.104 569.704ZM777.2080000000001 566.712H790.1880000000001Q790.1880000000001 563.72 788.384 561.696Q786.58 559.672 783.808 559.672Q781.0360000000001 559.672 779.2320000000001 561.586Q777.4280000000001 563.5 777.2080000000001 566.712Z M799.2520000000001 575.424H803.8720000000001V580.704Q803.8720000000001 586.468 799.2520000000001 586.468V584.796Q800.5280000000001 584.708 801.056 583.872Q801.5840000000001 583.036 801.5840000000001 580.792V580.0H799.2520000000001Z M821.296 556.944H824.6840000000001V560.2Q826.1800000000001 558.132 827.83 557.208Q829.48 556.284 831.768 556.284Q836.0360000000001 556.284 837.9720000000001 559.804Q839.6 557.868 841.184 557.076Q842.768 556.284 845.056 556.284Q848.268 556.284 850.0060000000001 557.934Q851.744 559.584 851.744 562.708V580.0H848.0480000000001V564.116Q848.0480000000001 561.916 846.9260000000002 560.706Q845.8040000000001 559.496 843.7800000000001 559.496Q841.5360000000001 559.496 839.952 561.256Q838.368 563.016 838.368 565.524V580.0H834.672V564.116Q834.672 561.916 833.5500000000001 560.706Q832.4280000000001 559.496 830.4040000000001 559.496Q828.1600000000001 559.496 826.576 561.256Q824.9920000000001 563.016 824.9920000000001 565.524V580.0H821.296Z M856.716 563.764Q856.98 556.284 865.956 556.284Q870.224 556.284 872.424 557.89Q874.624 559.496 874.624 562.576V576.128Q874.624 577.932 876.604 577.932Q877.0 577.932 877.396 577.844V580.616Q875.856 581.012 874.888 581.012Q873.128 581.012 872.2260000000001 580.198Q871.3240000000001 579.384 871.104 577.624Q867.408 581.012 863.272 581.012Q859.796 581.012 857.75 579.164Q855.7040000000001 577.316 855.7040000000001 574.192Q855.7040000000001 573.18 855.902 572.344Q856.1 571.508 856.3420000000001 570.87Q856.5840000000001 570.232 857.2 569.682Q857.816 569.132 858.234 568.78Q858.652 568.428 859.642 568.098Q860.6320000000001 567.768 861.1600000000001 567.614Q861.688 567.46 863.008 567.24Q864.328 567.02 864.944 566.932Q865.5600000000001 566.844 867.144 566.624Q869.3000000000001 566.36 870.136 565.788Q870.972 565.216 870.972 564.072V563.104Q870.972 561.432 869.63 560.552Q868.288 559.672 865.8240000000001 559.672Q863.272 559.672 861.952 560.662Q860.6320000000001 561.652 860.412 563.764ZM864.064 577.8Q867.1 577.8 869.0360000000001 576.194Q870.972 574.588 870.972 572.74V568.604Q869.8720000000001 569.132 867.6500000000001 569.4839999999999Q865.428 569.836 863.8 570.1Q862.172 570.364 860.8520000000001 571.354Q859.532 572.344 859.532 574.104Q859.532 575.864 860.72 576.832Q861.908 577.8 864.064 577.8Z M900.2320000000001 547.924V580.0H896.9760000000001V576.964Q895.48 579.12 893.742 580.066Q892.004 581.012 889.628 581.012Q884.964 581.012 882.2800000000001 577.646Q879.5960000000001 574.28 879.5960000000001 568.428Q879.5960000000001 562.928 882.3020000000001 559.606Q885.008 556.284 889.4960000000001 556.284Q894.248 556.284 896.58 559.848V547.924ZM890.1120000000001 559.716Q887.1200000000001 559.716 885.2720000000002 562.1800000000001Q883.4240000000001 564.644 883.4240000000001 568.648Q883.4240000000001 572.696 885.2720000000002 575.138Q887.1200000000001 577.58 890.1560000000001 577.58Q893.0600000000001 577.58 894.82 575.1600000000001Q896.58 572.74 896.58 568.736Q896.58 564.6 894.82 562.158Q893.0600000000001 559.716 890.1120000000001 559.716Z M925.004 569.704H908.0200000000001Q908.1080000000001 573.312 909.8900000000001 575.4680000000001Q911.672 577.624 914.796 577.624Q919.2840000000001 577.624 920.8240000000001 573.004H924.5200000000001Q923.816 576.788 921.22 578.9Q918.624 581.012 914.6640000000001 581.012Q909.8240000000001 581.012 907.008 577.7339999999999Q904.1920000000001 574.456 904.1920000000001 568.78Q904.1920000000001 563.104 907.0740000000001 559.694Q909.956 556.284 914.7520000000001 556.284Q925.004 556.284 925.004 569.704ZM908.1080000000001 566.712H921.0880000000001Q921.0880000000001 563.72 919.2840000000001 561.696Q917.48 559.672 914.7080000000001 559.672Q911.936 559.672 910.1320000000001 561.586Q908.3280000000001 563.5 908.1080000000001 566.712Z M951.052 560.156Q947.3560000000001 560.244 945.508 561.8720000000001Q943.6600000000001 563.5 943.6600000000001 568.032V580.0H939.964V556.944H943.3520000000001V561.124Q944.936 558.528 946.4100000000001 557.406Q947.884 556.284 949.6440000000001 556.284Q950.128 556.284 951.052 556.416Z M974.064 569.704H957.08Q957.168 573.312 958.95 575.4680000000001Q960.732 577.624 963.856 577.624Q968.344 577.624 969.884 573.004H973.58Q972.876 576.788 970.28 578.9Q967.684 581.012 963.724 581.012Q958.884 581.012 956.068 577.7339999999999Q953.2520000000001 574.456 953.2520000000001 568.78Q953.2520000000001 563.104 956.134 559.694Q959.016 556.284 963.812 556.284Q974.064 556.284 974.064 569.704ZM957.168 566.712H970.148Q970.148 563.72 968.344 561.696Q966.54 559.672 963.768 559.672Q960.996 559.672 959.192 561.586Q957.388 563.5 957.168 566.712Z M978.024 589.592V556.944H981.412V560.42Q984.008 556.284 988.76 556.284Q993.336 556.284 995.998 559.672Q998.66 563.06 998.66 568.868Q998.66 574.368 995.954 577.69Q993.248 581.012 988.804 581.012Q984.5360000000001 581.012 981.72 577.58V589.592ZM988.144 559.716Q985.24 559.716 983.48 562.158Q981.72 564.6 981.72 568.648Q981.72 572.696 983.48 575.138Q985.24 577.58 988.144 577.58Q991.136 577.58 992.9839999999999 575.138Q994.832 572.696 994.832 568.78Q994.832 564.644 993.0060000000001 562.1800000000001Q991.1800000000001 559.716 988.144 559.716Z M1022.112 569.704H1005.128Q1005.216 573.312 1006.998 575.4680000000001Q1008.78 577.624 1011.904 577.624Q1016.392 577.624 1017.932 573.004H1021.628Q1020.924 576.788 1018.328 578.9Q1015.732 581.012 1011.772 581.012Q1006.932 581.012 1004.116 577.7339999999999Q1001.3000000000001 574.456 1001.3000000000001 568.78Q1001.3000000000001 563.104 1004.182 559.694Q1007.064 556.284 1011.86 556.284Q1022.112 556.284 1022.112 569.704ZM1005.216 566.712H1018.196Q1018.196 563.72 1016.392 561.696Q1014.588 559.672 1011.816 559.672Q1009.044 559.672 1007.24 561.586Q1005.436 563.5 1005.216 566.712Z M1025.7640000000001 563.764Q1026.028 556.284 1035.004 556.284Q1039.272 556.284 1041.472 557.89Q1043.672 559.496 1043.672 562.576V576.128Q1043.672 577.932 1045.652 577.932Q1046.048 577.932 1046.444 577.844V580.616Q1044.904 581.012 1043.936 581.012Q1042.176 581.012 1041.274 580.198Q1040.372 579.384 1040.152 577.624Q1036.456 581.012 1032.32 581.012Q1028.844 581.012 1026.798 579.164Q1024.752 577.316 1024.752 574.192Q1024.752 573.18 1024.9499999999998 572.344Q1025.148 571.508 1025.3899999999999 570.87Q1025.632 570.232 1026.248 569.682Q1026.864 569.132 1027.2820000000002 568.78Q1027.7 568.428 1028.69 568.098Q1029.68 567.768 1030.208 567.614Q1030.736 567.46 1032.056 567.24Q1033.376 567.02 1033.992 566.932Q1034.608 566.844 1036.192 566.624Q1038.348 566.36 1039.184 565.788Q1040.02 565.216 1040.02 564.072V563.104Q1040.02 561.432 1038.6779999999999 560.552Q1037.336 559.672 1034.872 559.672Q1032.32 559.672 1031.0 560.662Q1029.68 561.652 1029.46 563.764ZM1033.112 577.8Q1036.148 577.8 1038.0839999999998 576.194Q1040.02 574.588 1040.02 572.74V568.604Q1038.92 569.132 1036.698 569.4839999999999Q1034.476 569.836 1032.848 570.1Q1031.22 570.364 1029.9 571.354Q1028.58 572.344 1028.58 574.104Q1028.58 575.864 1029.768 576.832Q1030.956 577.8 1033.112 577.8Z M1058.7640000000001 556.944V559.936H1054.98V575.732Q1054.98 576.964 1055.3980000000001 577.3820000000001Q1055.816 577.8 1057.0040000000001 577.8Q1058.104 577.8 1058.7640000000001 577.624V580.704Q1057.048 581.012 1055.7720000000002 581.012Q1053.616 581.012 1052.472 580.066Q1051.328 579.12 1051.328 577.36V559.936H1048.2040000000002V556.944H1051.328V550.608H1054.98V556.944Z M1061.976 563.764Q1062.24 556.284 1071.216 556.284Q1075.484 556.284 1077.684 557.89Q1079.884 559.496 1079.884 562.576V576.128Q1079.884 577.932 1081.864 577.932Q1082.26 577.932 1082.656 577.844V580.616Q1081.116 581.012 1080.148 581.012Q1078.388 581.012 1077.4859999999999 580.198Q1076.584 579.384 1076.364 577.624Q1072.668 581.012 1068.532 581.012Q1065.056 581.012 1063.01 579.164Q1060.964 577.316 1060.964 574.192Q1060.964 573.18 1061.1619999999998 572.344Q1061.36 571.508 1061.6019999999999 570.87Q1061.844 570.232 1062.46 569.682Q1063.076 569.132 1063.4940000000001 568.78Q1063.912 568.428 1064.902 568.098Q1065.892 567.768 1066.42 567.614Q1066.948 567.46 1068.268 567.24Q1069.588 567.02 1070.204 566.932Q1070.82 566.844 1072.404 566.624Q1074.56 566.36 1075.396 565.788Q1076.232 565.216 1076.232 564.072V563.104Q1076.232 561.432 1074.8899999999999 560.552Q1073.548 559.672 1071.084 559.672Q1068.532 559.672 1067.212 560.662Q1065.892 561.652 1065.672 563.764ZM1069.324 577.8Q1072.36 577.8 1074.2959999999998 576.194Q1076.232 574.588 1076.232 572.74V568.604Q1075.132 569.132 1072.91 569.4839999999999Q1070.688 569.836 1069.06 570.1Q1067.432 570.364 1066.112 571.354Q1064.792 572.344 1064.792 574.104Q1064.792 575.864 1065.98 576.832Q1067.168 577.8 1069.324 577.8Z M1086.1760000000002 547.924H1089.828V560.068Q1092.336 556.284 1096.9560000000001 556.284Q1101.5320000000002 556.284 1104.172 559.54Q1106.8120000000001 562.796 1106.8120000000001 568.384Q1106.8120000000001 574.104 1104.084 577.558Q1101.356 581.012 1096.78 581.012Q1092.0720000000001 581.012 1089.476 577.052V580.0H1086.1760000000002ZM1096.252 559.716Q1093.348 559.716 1091.588 562.158Q1089.828 564.6 1089.828 568.648Q1089.828 572.696 1091.588 575.138Q1093.348 577.58 1096.252 577.58Q1099.2440000000001 577.58 1101.114 575.138Q1102.9840000000002 572.696 1102.9840000000002 568.78Q1102.9840000000002 564.644 1101.1580000000001 562.1800000000001Q1099.332 559.716 1096.252 559.716Z M1114.468 547.924V580.0H1110.7720000000002V547.924Z M1139.68 569.704H1122.696Q1122.784 573.312 1124.566 575.4680000000001Q1126.348 577.624 1129.472 577.624Q1133.96 577.624 1135.5 573.004H1139.196Q1138.492 576.788 1135.896 578.9Q1133.3 581.012 1129.34 581.012Q1124.5 581.012 1121.684 577.7339999999999Q1118.868 574.456 1118.868 568.78Q1118.868 563.104 1121.75 559.694Q1124.632 556.284 1129.428 556.284Q1139.68 556.284 1139.68 569.704ZM1122.784 566.712H1135.764Q1135.764 563.72 1133.96 561.696Q1132.156 559.672 1129.384 559.672Q1126.612 559.672 1124.808 561.586Q1123.004 563.5 1122.784 566.712Z M1149.096 575.424V580.0H1144.52V575.424Z"/>
</svg>
